Coordinates
version=1
nRows=17
nColumns=40
inDegrees=yes

Units are S.I. units (second, meters, Newtons, ...)
Angles are in degrees.

endheader
time	pelvis_tilt	pelvis_list	pelvis_rotation	pelvis_tx	pelvis_ty	pelvis_tz	hip_flexion_r	hip_adduction_r	hip_rotation_r	knee_angle_r	knee_angle_r_beta	ankle_angle_r	subtalar_angle_r	mtp_angle_r	hip_flexion_l	hip_adduction_l	hip_rotation_l	knee_angle_l	knee_angle_l_beta	ankle_angle_l	subtalar_angle_l	mtp_angle_l	lumbar_extension	lumbar_bending	lumbar_rotation	arm_flex_r	arm_add_r	arm_rot_r	elbow_flex_r	pro_sup_r	wrist_flex_r	wrist_dev_r	arm_flex_l	arm_add_l	arm_rot_l	elbow_flex_l	pro_sup_l	wrist_flex_l	wrist_dev_l
      3.44364286	     -3.86328101	     -5.11884564	     10.17604746	      1.00204142	      0.92206698	      0.51838656	      1.31233715	      5.17310077	    -20.44928528	     11.05672399	     11.05672399	     15.38717351	     -3.89775535	     -6.52374096	     28.00542931	     -7.29788491	     -1.88914296	     15.52186279	     15.52186279	      2.11256584	     -5.15751573	      0.23289642	     -8.05099156	      2.82313585	      3.89171648	     45.57849688	    -19.08141106	    -14.49376845	     77.01457282	     44.90033367	      0.00000000	      0.00000000	    -12.66979771	     -7.75641651	     -4.25208960	     33.22503940	     45.66012040	      0.00000000	      0.00000000
      3.46228571	     -3.80014918	     -5.26565850	     10.26224838	      1.00297042	      0.92105191	      0.51503694	      0.67633128	      5.25276001	    -20.40452181	     10.87036884	     10.87036884	     15.77299041	     -3.86266481	     -6.49897950	     28.08185266	     -7.31061062	     -1.73914396	     16.53930647	     16.53930647	      1.65933910	     -6.40956076	     -0.32272661	     -7.96097634	      2.75639347	      3.73074947	     46.43984145	    -18.95145285	    -14.14710475	     78.26848504	     44.85742952	      0.00000000	      0.00000000	    -12.50934558	     -7.80464223	     -4.22265443	     33.53647495	     45.66182361	      0.00000000	      0.00000000
      3.48092857	     -3.78954695	     -5.24643710	     10.28382007	      1.00413273	      0.92015797	      0.51145630	      0.07608405	      5.11848956	    -20.26446238	     10.74499939	     10.74499939	     16.16590268	     -3.88031848	     -6.43004116	     28.09702104	     -7.15386618	     -1.67170801	     17.51358097	     17.51358097	      1.25908630	     -7.53388366	     -0.74832294	     -7.79126047	      2.47592137	      3.75524411	     47.15229438	    -19.00459160	    -13.91919892	     79.15665479	     44.82956196	      0.00000000	      0.00000000	    -12.19835629	     -7.94042801	     -4.24349108	     33.87904621	     45.67204156	      0.00000000	      0.00000000
      3.49957143	     -3.76672374	     -5.17006548	     10.26850748	      1.00543726	      0.91937557	      0.50772684	     -0.54394278	      4.90753786	    -20.10199675	     10.64945675	     10.64945675	     16.55990490	     -3.92914763	     -6.32494801	     28.12761806	     -6.93754971	     -1.55052231	     18.61652198	     18.61652198	      1.03249163	     -8.58664894	     -1.07774051	     -7.66112903	      2.10175751	      3.81744427	     47.77984485	    -19.06898350	    -13.75654981	     79.85446675	     44.80874711	      0.00000000	      0.00000000	    -11.80699330	     -8.10777948	     -4.29321143	     34.18874550	     45.68665791	      0.00000000	      0.00000000
      3.51821429	     -3.74397623	     -5.07541921	     10.25936869	      1.00675876	      0.91869923	      0.50377378	     -1.14584996	      4.65449795	    -19.91667856	     10.59561564	     10.59561564	     16.91953328	     -4.01291930	     -6.10931006	     28.18680909	     -6.66054512	     -1.28639761	     19.78715859	     19.78715859	      1.00032639	     -9.65739720	     -1.37649459	     -7.52541607	      1.75542235	      3.88042066	     48.29471854	    -19.15946820	    -13.59070905	     80.54393130	     44.78851130	      0.00000000	      0.00000000	    -11.30444228	     -8.27306799	     -4.38563352	     34.55230214	     45.70864711	      0.00000000	      0.00000000
      3.53685714	     -3.70495745	     -4.91784281	     10.20042817	      1.00814619	      0.91825728	      0.49971435	     -1.73150419	      4.30510620	    -19.70271970	     10.63705500	     10.63705500	     17.23915132	     -4.13927183	     -5.82977966	     28.17514171	     -6.32934649	     -1.08038650	     20.91332815	     20.91332815	      1.16906332	    -10.55633994	     -1.58580108	     -7.42585442	      1.35140840	      3.98050478	     48.71510099	    -19.25762597	    -13.45175813	     81.10949118	     44.77272199	      0.00000000	      0.00000000	    -10.74693871	     -8.45664499	     -4.52332070	     34.89686259	     45.73691535	      0.00000000	      0.00000000
      3.55550000	     -3.67801330	     -4.71029867	     10.10758427	      1.00950445	      0.91805190	      0.49559601	     -2.25864502	      3.86788736	    -19.49654534	     10.76756105	     10.76756105	     17.47354817	     -4.29789680	     -5.57533870	     28.08000392	     -5.95883161	     -1.00385284	     21.89994878	     21.89994878	      1.55101939	    -11.20720420	     -1.77320328	     -7.33358880	      0.85636551	      4.07633068	     49.06306073	    -19.27794768	    -13.33396822	     81.48788725	     44.76182072	      0.00000000	      0.00000000	    -10.09621851	     -8.65860061	     -4.66656309	     35.20419539	     45.76638222	      0.00000000	      0.00000000
      3.57414286	     -3.63352449	     -4.49642750	      9.98979638	      1.01076797	      0.91809663	      0.49137709	     -2.70793995	      3.37441360	    -19.27592094	     11.05894228	     11.05894228	     17.59946710	     -4.50923192	     -5.31165587	     27.90681447	     -5.58329871	     -0.95219499	     22.77813389	     22.77813389	      2.08907607	    -11.69277874	     -1.95930140	     -7.26422520	      0.45934365	      4.16297994	     49.33826523	    -19.25179861	    -13.21469217	     81.77894026	     44.75278056	      0.00000000	      0.00000000	     -9.36510294	     -8.85145463	     -4.82453819	     35.50995393	     45.79841090	      0.00000000	      0.00000000
      3.59278571	     -3.60329030	     -4.34235335	      9.82780052	      1.01182063	      0.91823931	      0.48717415	     -2.80241518	      2.84921373	    -18.85858043	     11.96788430	     11.96788430	     17.88570737	     -5.16289817	     -4.63915012	     27.74152738	     -5.28035857	     -0.93588897	     23.62631242	     23.62631242	      2.91124762	    -11.95280113	     -1.85729704	     -7.21511679	      0.17175503	      4.39609617	     49.53459457	    -19.42237156	    -13.03600769	     82.30973219	     44.73971406	      0.00000000	      0.00000000	     -8.57042144	     -8.93808052	     -5.27554375	     35.85183783	     45.86882236	      0.00000000	      0.00000000
      3.61142857	     -3.59018230	     -4.20125159	      9.61927341	      1.01282911	      0.91885108	      0.48316048	     -2.75951794	      2.34506041	    -18.20891529	     13.08899669	     13.08899669	     18.58059037	     -5.91666341	     -1.89185596	     27.53824821	     -5.08567587	     -1.25947169	     24.42164721	     24.42164721	      4.54412673	    -11.35570372	     -0.17310342	     -7.17060365	     -0.14877710	      4.66768372	     49.21491663	    -19.68024544	    -12.84119305	     83.23968423	     44.75544371	      0.00000000	      0.00000000	     -7.43552498	     -8.73405830	     -7.40735627	     35.66680338	     46.14687465	      0.00000000	      0.00000000
      3.63007143	     -3.39447393	     -4.02935683	      9.44794479	      1.01376840	      0.91976448	      0.47903756	     -2.83586907	      1.74388678	    -18.04791580	     14.29208259	     14.29208259	     18.39755862	     -6.37330751	     -1.92900035	     26.93251014	     -4.82546520	     -1.46579719	     24.77663929	     24.77663929	      5.25939194	    -11.42014311	     -0.48949910	     -7.31969734	     -0.43338502	      4.59540527	     49.33845149	    -19.38928248	    -12.74063536	     83.21881563	     44.75745356	      0.00000000	      0.00000000	     -6.57914880	     -8.92698735	     -7.52358539	     35.86511518	     46.17262093	      0.00000000	      0.00000000
      3.64871429	     -3.44409925	     -3.88369946	      9.22956163	      1.01430346	      0.92043038	      0.47504412	     -2.14406754	      1.06033336	    -17.42143607	     16.34852805	     16.34852805	     18.16799728	     -7.93679824	     -1.82003754	     26.54960621	     -4.61255704	     -1.89459297	     25.02235606	     25.02235606	      6.10207049	    -11.00119561	     -0.65635027	     -7.16932374	     -0.66948094	      4.51927437	     49.36636436	    -18.99129657	    -12.63238988	     83.06353099	     44.78157892	      0.00000000	      0.00000000	     -5.54140141	     -9.01081942	     -8.14266656	     35.60376129	     46.25429913	      0.00000000	      0.00000000
      3.66735714	     -3.28248339	     -3.68946088	      9.03642671	      1.01484885	      0.92156547	      0.47101349	     -1.58033597	      0.29433607	    -17.12853514	     18.59090048	     18.59090048	     17.79662603	     -9.07036405	     -2.00705026	     25.78372635	     -4.34718906	     -2.29498363	     24.98770042	     24.98770042	      6.78356348	    -10.75696350	     -0.90917903	     -7.30365054	     -0.91054644	      4.34271772	     49.26891343	    -18.57758543	    -12.50115081	     83.06904818	     44.78364647	      0.00000000	      0.00000000	     -4.54159216	     -9.19701781	     -8.31451846	     35.65039496	     46.28637621	      0.00000000	      0.00000000
      3.68600000	     -2.98988454	     -3.57477346	      8.88817548	      1.01530166	      0.92286649	      0.46702434	     -0.96669073	     -0.38306233	    -16.87176673	     21.11177561	     21.11177561	     17.27698823	    -10.35764315	     -2.23297305	     24.90273983	     -4.16112166	     -2.58872817	     24.94851712	     24.94851712	      7.44681650	    -10.54228889	     -1.18623611	     -7.55470164	     -1.02697204	      4.08821445	     48.99411406	    -18.13285572	    -12.38748513	     83.02476019	     44.78435768	      0.00000000	      0.00000000	     -3.50055055	     -9.37134992	     -8.38971005	     35.68636116	     46.30815504	      0.00000000	      0.00000000
      3.70464286	     -2.96704906	     -3.34858687	      8.67069448	      1.01534121	      0.92371426	      0.46313257	      0.37314062	     -1.29055997	    -16.40722633	     24.37872102	     24.37872102	     16.57212930	    -12.32564449	     -2.54340088	     24.25716553	     -3.84714561	     -3.10929883	     24.79881321	     24.79881321	      7.97596771	    -10.23298464	     -1.46012952	     -7.52869099	     -1.23896293	      3.83363228	     48.61375350	    -17.58944172	    -12.31796838	     82.96635652	     44.78827242	      0.00000000	      0.00000000	     -2.36433682	     -9.61411257	     -8.44796221	     35.46197264	     46.32759717	      0.00000000	      0.00000000
      3.72328571	     -2.77989561	     -3.18307985	      8.49082804	      1.01537427	      0.92469193	      0.45927236	      1.61644011	     -2.10054834	    -16.10159590	     27.71469836	     27.71469836	     15.67671019	    -14.23450780	     -2.79543759	     23.46761304	     -3.59085269	     -3.49678239	     24.66815144	     24.66815144	      8.47770711	    -10.04145655	     -1.71855120	     -7.65526910	     -1.34240668	      3.52242809	     48.05611823	    -17.04841915	    -12.29436966	     82.84615380	     44.79423259	      0.00000000	      0.00000000	     -1.14424673	     -9.83719076	     -8.42267698	     35.21076715	     46.33824033	      0.00000000	      0.00000000
      3.74192857	     -2.49645708	     -3.03547920	      8.36467425	      1.01536820	      0.92569292	      0.45546196	      2.83024893	     -2.89404397	    -15.96919986	     31.14470712	     31.14470712	     14.63218615	    -15.95589034	     -2.97918948	     22.58302620	     -3.33244986	     -3.74441968	     24.52791822	     24.52791822	      8.95972849	     -9.91072055	     -1.96248463	     -7.86909599	     -1.40318273	      3.16493262	     47.30973530	    -16.49717980	    -12.27240985	     82.66438825	     44.80006453	      0.00000000	      0.00000000	      0.12261125	    -10.03747025	     -8.33208154	     35.03105739	     46.34236267	      0.00000000	      0.00000000
